HIERARCHY
ROOT hip
{
	OFFSET 0.000000 0.000000 0.000000 
	CHANNELS 6 Xposition Yposition Zposition Xrotation Zrotation Yrotation
	JOINT abdomen
	{
		OFFSET 0.000000 3.402643 0.000000 
		CHANNELS 3 Xrotation Zrotation Yrotation
		JOINT chest
		{
			OFFSET 0.000000 8.438565 -0.680529 
			CHANNELS 3 Xrotation Zrotation Yrotation
			JOINT neck
			{
				OFFSET 0.000000 10.207942 -0.272212 
				CHANNELS 3 Xrotation Zrotation Yrotation
				JOINT head
				{
					OFFSET 0.000000 3.130431 0.000000 
					CHANNELS 3 Xrotation Zrotation Yrotation
					End Site
					{
						OFFSET 0.000000 3.130435 0.000000 
					}
				}
			}
			JOINT lCollar
			{
				OFFSET 3.470700 6.669187 -0.816635 
				CHANNELS 3 Yrotation Zrotation Xrotation
				JOINT lShldr
				{
					OFFSET 3.198488 0.000000 0.000000 
					CHANNELS 3 Zrotation Yrotation Xrotation
					JOINT lForeArm
					{
						OFFSET 10.139888 0.000000 0.000000 
						CHANNELS 3 Yrotation Zrotation Xrotation
						JOINT lHand
						{
							OFFSET 8.370511 0.000000 0.000000 
							CHANNELS 3 Zrotation Yrotation Xrotation
							End Site
							{
								OFFSET 4.083176 0.000000 0.000000 
							}
						}
					}
				}
			}
			JOINT rCollar
			{
				OFFSET -3.470700 6.669187 -0.816635 
				CHANNELS 3 Yrotation Zrotation Xrotation
				JOINT rShldr
				{
					OFFSET -3.198488 0.000000 0.000000 
					CHANNELS 3 Zrotation Yrotation Xrotation
					JOINT rForeArm
					{
						OFFSET -10.139888 0.000000 0.000000 
						CHANNELS 3 Yrotation Zrotation Xrotation
						JOINT rHand
						{
							OFFSET -8.370511 0.000000 0.000000 
							CHANNELS 3 Zrotation Yrotation Xrotation
							End Site
							{
								OFFSET -4.083176 0.000000 0.000000 
							}
						}
					}
				}
			}
		}
	}
	JOINT lThigh
	{
		OFFSET 5.308129 -1.633274 1.361059 
		CHANNELS 3 Xrotation Zrotation Yrotation
		JOINT lShin
		{
			OFFSET -2.041588 -20.007561 0.000000 
			CHANNELS 3 Xrotation Zrotation Yrotation
			JOINT lFoot
			{
				OFFSET 0.000000 -19.190928 -1.224953 
				CHANNELS 3 Xrotation Yrotation Zrotation
				End Site
				{
					OFFSET 0.000000 -2.449906 4.627600 
				}
			}
		}
	}
	JOINT rThigh
	{
		OFFSET -5.308129 -1.633274 1.361059 
		CHANNELS 3 Xrotation Zrotation Yrotation
		JOINT rShin
		{
			OFFSET 2.041588 -20.007561 0.000000 
			CHANNELS 3 Xrotation Zrotation Yrotation
			JOINT rFoot
			{
				OFFSET 0.000000 -19.190928 -1.224953 
				CHANNELS 3 Xrotation Yrotation Zrotation
				End Site
				{
					OFFSET 0.000000 -2.449906 4.627600 
				}
			}
		}
	}
}
MOTION
Frames: 19
Frame Time: 0.016667
1.725836 48.435783 1.607137 -8.074976 6.861228 -65.747849 16.115040 -8.599627 7.456160 -9.636755 0.436513 6.631112 29.608173 1.171874 -0.058582 -29.564173 -1.758936 10.190288 17.123713 8.951110 21.361403 -52.145489 -14.646987 4.458697 -92.487183 13.985217 28.158838 -55.268742 -49.292454 29.416897 -1.821852 -6.231983 24.487936 38.167625 17.247015 95.330864 -4.805449 -46.396263 -109.185699 54.426262 48.276455 47.653568 -1.784774 0.124949 17.115137 28.319773 3.947587 -0.156074 -16.018230 -20.584173 3.529160 -27.818680 -7.723392 -0.153505 63.497078 6.553476 6.364446 -3.203228 0.418120 12.672461 
1.508794 48.563965 1.493804 -7.672823 6.304637 -65.161469 16.115040 -8.599627 7.456160 -9.687705 -0.087323 6.513679 29.860392 3.662103 0.107826 -29.706606 -2.939930 9.240305 15.572887 10.957814 21.137213 -51.835873 -16.741276 4.315855 -92.827629 14.791448 27.476789 -55.475483 -48.176731 28.941305 -3.789637 -4.412195 24.410263 38.440502 14.952558 96.462196 -1.599526 -45.663750 -105.917366 52.729496 49.026398 46.085796 -0.761032 0.799239 17.342766 27.348343 4.075467 -0.055096 -15.751750 -21.314049 2.969438 -25.632750 -7.840972 -0.309350 61.739925 8.760324 6.735277 -3.201191 -3.317362 13.135839 
1.291721 48.691990 1.380472 -7.286391 5.749633 -64.584267 16.115040 -8.599627 7.456160 -9.736513 -0.611404 6.396848 30.129286 6.162029 0.295469 -29.829454 -4.126469 8.292757 14.009647 12.964697 20.969831 -51.518566 -18.835308 4.159819 -93.163551 15.603094 26.806381 -55.674191 -47.069973 28.460426 -5.746354 -2.584166 24.400108 38.665237 12.650993 97.571922 1.513945 -44.794544 -102.750435 50.995247 49.740940 44.479565 0.253536 1.451679 17.561861 26.382952 4.205638 0.024194 -15.492954 -22.037235 2.400144 -23.439566 -7.946572 -0.451616 59.985775 10.986945 7.023627 -3.154207 -7.044309 13.639252 
1.046602 48.692616 1.266414 -6.975847 4.948902 -63.869324 16.115040 -8.599627 7.456160 -9.460567 -1.223108 6.270807 30.282429 8.827789 0.504137 -30.005049 -5.349059 7.140161 12.233789 15.259018 20.984365 -50.925163 -21.133537 3.919348 -93.061890 16.557755 26.073971 -55.570553 -46.200691 27.828789 -7.751639 -0.741515 24.579710 38.805088 10.419600 98.696571 3.296321 -44.232735 -101.174400 49.457981 50.277645 42.752975 0.829499 2.255832 17.823730 26.702543 4.693438 0.121052 -15.965974 -22.858400 1.684247 -20.753258 -7.809600 -0.510787 57.671864 12.977946 7.286430 -3.739056 -10.196115 14.120480 
0.801503 48.693058 1.152368 -6.685835 4.146616 -63.155739 16.115040 -8.599627 7.456160 -9.182670 -1.844846 6.135909 30.434080 11.503053 0.708644 -30.148787 -6.565991 5.976581 10.439842 17.551680 21.074421 -50.307632 -23.425611 3.656846 -92.945404 17.513893 25.343784 -55.470379 -45.341896 27.213005 -9.759969 1.105497 24.815729 38.893044 8.200635 99.803558 5.042922 -43.641258 -99.632538 47.885563 50.772755 40.992489 1.414203 3.033483 18.101406 27.045839 5.181954 0.220849 -16.481726 -23.681564 0.944672 -18.083929 -7.655443 -0.566263 55.347382 14.979671 7.471581 -4.297076 -13.349027 14.559151 
0.572150 48.542747 1.047750 -6.428620 3.286322 -62.711212 16.115040 -8.599627 7.456160 -8.681603 -2.311372 6.029923 30.428455 13.806973 0.895297 -30.150490 -7.689314 4.690173 8.869790 19.773867 21.295618 -49.222359 -25.675238 3.224772 -92.419670 18.707722 24.704218 -54.971642 -44.817364 26.544905 -11.453700 2.441510 24.889891 39.438908 6.342486 101.160095 4.899551 -43.443405 -99.897079 46.274662 51.127182 38.945107 1.276319 3.958512 18.409512 28.875212 5.990929 0.311062 -17.471764 -24.274088 0.013995 -15.748348 -7.107758 -0.508471 53.398689 16.261370 7.635399 -5.660735 -15.281642 14.359241 
0.342887 48.392326 0.943150 -6.188158 2.426754 -62.275070 16.115040 -8.599627 7.456160 -8.189594 -2.787786 5.924714 30.426167 16.120344 1.078506 -30.129293 -8.812923 3.389315 7.263713 21.987423 21.585463 -48.094345 -27.918327 2.735843 -91.872711 19.898727 24.049210 -54.479492 -44.297241 25.878777 -13.159677 3.786517 24.990072 39.940800 4.468460 102.488998 4.762499 -43.247677 -100.161858 44.634331 51.441631 36.871651 1.149614 4.876103 18.724596 30.733454 6.791797 0.419124 -18.518354 -24.829479 -0.934977 -13.420591 -6.549318 -0.399081 51.419918 17.576515 7.711957 -7.031458 -17.207647 14.159692 
0.184893 48.150085 0.853463 -5.869402 1.606126 -62.680256 16.115040 -8.599627 7.456160 -7.571332 -2.758645 5.924716 30.420959 17.594046 1.201294 -30.036985 -9.679386 2.366417 6.211867 23.548395 21.849001 -46.704136 -29.376350 2.154275 -91.357346 21.375483 23.710749 -53.022110 -43.902958 24.558416 -14.301567 4.387704 24.989140 40.973999 3.390170 103.785675 2.946310 -43.157734 -101.787872 42.475735 51.448730 33.809502 0.429206 5.956836 19.095102 33.742825 7.719179 0.440953 -19.331869 -24.718126 -2.108798 -12.110847 -5.514029 -0.141276 50.612419 17.919308 7.699822 -9.031594 -17.630381 13.228380 
0.027028 47.907875 0.763802 -5.554006 0.786743 -63.096481 16.115040 -8.599627 7.456160 -6.942759 -2.719743 5.934009 30.418753 19.057861 1.312548 -29.932936 -10.544051 1.340770 5.148063 25.102680 22.157524 -45.271469 -30.816807 1.513660 -90.829269 22.850012 23.343683 -51.599583 -43.480915 23.278040 -15.447550 4.995282 24.995375 41.978565 2.270438 105.066330 1.123033 -43.030865 -103.417969 40.322521 51.388054 30.758295 -0.303071 7.039331 19.461956 36.759235 8.636159 0.485993 -20.125410 -24.553410 -3.259785 -10.811864 -4.479151 0.149776 49.797371 18.259563 7.692379 -11.020934 -18.014072 12.296744 
-0.029631 47.694366 0.693367 -5.297993 0.020989 -64.541023 16.115040 -8.599627 7.456160 -6.122221 -2.311455 6.010407 30.577879 19.662785 1.371609 -29.959799 -11.063633 0.704835 4.799415 25.667700 22.266548 -44.176640 -31.074686 1.016165 -90.768738 24.347338 23.380167 -48.576473 -42.745880 20.601646 -15.877956 5.321158 24.993345 42.737827 1.970249 105.715782 -1.395706 -43.038277 -105.459579 37.190765 51.123951 26.704681 -1.347773 8.134736 19.851385 40.515968 9.388834 0.439371 -19.975416 -23.889076 -4.530347 -10.357952 -3.270253 0.462646 50.037884 17.677151 7.601932 -12.307398 -17.269724 11.548977 
-0.086161 47.480976 0.622961 -5.029324 -0.735119 -65.996918 16.115040 -8.599627 7.456160 -5.300920 -1.903244 6.096862 30.728516 20.267668 1.427566 -29.974962 -11.591789 0.068927 4.438469 26.220615 22.387083 -43.075718 -31.325153 0.505909 -90.711319 25.843960 23.413376 -45.647842 -41.908344 18.016386 -16.308241 5.647157 24.991642 43.498295 1.654674 106.352623 -3.919868 -42.977509 -107.513496 34.131512 50.723366 22.727474 -2.382998 9.237744 20.211300 44.278404 10.148101 0.420133 -19.798735 -23.216951 -5.775996 -9.899222 -2.049950 0.814509 50.266369 17.118935 7.472803 -13.568067 -16.484056 10.850265 
-0.044812 47.367538 0.574870 -4.910030 -1.058910 -68.296196 16.115040 -8.599627 7.456160 -4.667880 -1.534023 6.173838 31.051037 20.277430 1.427567 -30.285707 -11.747992 -0.180053 4.794682 26.083572 22.231754 -43.086433 -30.536226 0.486037 -91.457390 26.953812 23.740362 -40.630112 -40.109806 13.621716 -16.249594 5.875191 24.988592 43.584511 2.147444 106.102417 -6.299325 -43.202538 -109.058167 30.370924 50.202656 18.395121 -3.788754 10.052999 20.460184 47.996456 10.570444 0.286197 -18.501881 -22.195251 -6.595419 -10.109703 -1.034361 1.147341 50.844757 15.967393 7.290000 -13.964600 -15.041428 10.369203 
-0.003419 47.254292 0.526864 -4.786399 -1.377908 -70.593880 16.115040 -8.599627 7.456160 -4.034709 -1.174638 6.241520 31.379719 20.287281 1.418407 -30.602699 -11.913721 -0.440592 5.140870 25.941900 22.072580 -43.087105 -29.758953 0.461518 -92.214134 28.050632 24.085087 -35.947315 -38.025890 9.572927 -16.179045 6.095610 24.996143 43.669827 2.657134 105.845833 -8.681151 -43.382648 -110.600922 26.708332 49.505840 14.165758 -5.185522 10.876625 20.697716 51.720093 10.982677 0.229433 -17.236320 -21.211086 -7.417893 -10.329314 -0.019676 1.484928 51.422363 14.829314 7.091392 -14.316478 -13.604636 9.926861 
0.070318 47.281120 0.541065 -5.236431 -1.338590 -73.225670 16.115040 -8.599627 7.456160 -3.570717 -1.407755 6.193129 31.741596 20.072582 1.405849 -30.903772 -11.952186 -0.729793 5.774696 25.351032 21.841583 -44.193909 -28.141150 0.949791 -93.785896 28.708858 24.696114 -30.711538 -35.228619 5.442092 -15.863934 6.328204 24.997736 43.132706 3.717367 104.905708 -10.851571 -43.841152 -111.887856 23.054754 48.689774 10.178966 -6.386020 10.855482 20.623568 54.510681 11.032506 0.123352 -15.825053 -20.044094 -8.104450 -10.425749 0.263741 1.537831 51.665333 13.350636 6.785199 -14.110755 -11.612859 9.583255 
0.144052 47.308102 0.555365 -5.700804 -1.318958 -75.851280 16.115040 -8.599627 7.456160 -3.107097 -1.650653 6.135321 32.090023 19.848200 1.384128 -31.206520 -11.990385 -1.009440 6.399536 24.766781 21.616730 -45.280056 -26.502737 1.397605 -95.369362 29.343966 25.315399 -25.920181 -32.151020 1.784415 -15.547493 6.563121 24.989120 42.581406 4.781384 103.953514 -13.053352 -44.266136 -113.199051 19.562929 47.695908 6.351518 -7.598007 10.830645 20.558022 57.303410 11.098267 -0.012659 -14.427334 -18.910305 -8.803844 -10.525563 0.546829 1.609512 51.919712 11.901534 6.487946 -13.907371 -9.645364 9.215002 
0.217353 47.445278 0.644298 -6.721207 -0.814565 -78.700851 16.115040 -8.599627 7.456160 -3.185246 -2.447640 5.962420 32.414665 19.331079 1.337433 -31.287409 -11.891615 -1.289071 7.378915 23.930326 21.288918 -47.207214 -24.326168 2.280402 -97.193970 29.337353 26.246563 -21.569525 -29.520439 -0.910846 -14.982051 6.411023 24.993193 42.007046 6.259343 102.796936 -15.079671 -44.807457 -114.520714 16.682314 46.673595 3.180921 -8.591505 9.828064 20.114000 58.426968 10.746511 -0.126763 -13.589418 -17.553806 -9.193054 -10.737828 -0.049052 1.446434 51.823345 10.425537 6.154988 -13.486084 -7.189880 8.830748 
0.290589 47.582485 0.733306 -7.780467 -0.359967 -81.560394 16.115040 -8.599627 7.456160 -3.248829 -3.245111 5.790191 32.727318 18.823761 1.281652 -31.371319 -11.792646 -1.557137 8.349856 23.102150 20.976664 -49.055138 -22.112270 3.062400 -99.020981 29.303141 27.182386 -17.469902 -26.721230 -3.317173 -14.429125 6.263755 24.994831 41.396099 7.727409 101.621849 -17.135910 -45.328224 -115.864281 13.952968 45.540077 0.162960 -9.576366 8.820883 19.697140 59.572720 10.414993 -0.235152 -12.780623 -16.210936 -9.594516 -10.953931 -0.644236 1.275469 51.721764 8.927005 5.806010 -13.054717 -4.727828 8.419008 
0.316398 47.747623 0.875384 -8.745101 0.781971 -84.992104 16.115040 -8.599627 7.456160 -4.446792 -3.653737 5.704775 33.059566 17.516058 1.179717 -31.100826 -11.401954 -1.595365 9.993093 22.355404 20.398338 -51.728008 -19.460657 4.316670 -100.234741 28.518248 28.354933 -14.219955 -25.355705 -4.747025 -13.350995 5.214123 24.981388 41.478806 9.381472 100.850113 -19.762188 -45.710831 -116.928795 11.464681 45.056999 -2.096218 -10.698643 7.786190 19.259169 59.189854 9.798333 -0.367628 -12.830798 -15.174629 -8.869037 -11.800712 -1.288360 1.098972 51.263416 7.550290 5.413363 -12.438245 -1.810805 8.120831 
0.342164 47.912815 1.017483 -9.779269 1.862513 -88.436295 16.115040 -8.599627 7.456160 -5.644922 -4.062342 5.639187 33.381199 16.208319 1.059755 -30.830853 -11.011268 -1.631757 11.616339 21.606186 19.855503 -54.287998 -16.756887 5.412851 -101.421715 27.703302 29.497766 -11.050664 -23.920053 -6.076176 -12.287160 4.165742 24.992661 41.547634 11.038951 100.082863 -22.387512 -46.063065 -118.001778 9.022330 44.506027 -4.300298 -11.821204 6.742189 18.794237 58.798954 9.145331 -0.505156 -12.870702 -14.112680 -8.128186 -12.659324 -1.942749 0.941582 50.812134 6.180862 5.038964 -11.817523 1.131661 7.815939 
